<svg xmlns="http://www.w3.org/2000/svg" height="75" width="100" version="1.0" viewBox="-38.96895 -45.199 337.7309 271.194"><path d="M87.012 107.266L72.24 98.73l.272-18.07.272-18.07 12.5-7.175 12.5-7.174.5-15.278.5-15.278 15.598-8.842L129.98 0l15.61 8.746 15.609 8.747.043 15.18.042 15.182 13.5 7.62 13.5 7.62v34.762l-2.75 1.902c-3.893 2.693-28.11 16.234-29.033 16.234-.421 0-6.337-3.15-13.146-7-6.809-3.85-12.855-7-13.437-7-.582 0-6.585 3.15-13.34 7-6.756 3.85-12.848 6.957-13.538 6.904-.69-.053-7.903-3.937-16.028-8.631zm11.262-14.523l-.01-9.25-7.458-4.25c-4.101-2.338-7.922-4.25-8.49-4.25-.632 0-1.032 3.46-1.032 8.941v8.941l8.25 4.54c4.538 2.498 8.363 4.55 8.5 4.56.138.01.246-4.145.24-9.232zm19.057 4.662l7.953-4.587V73.952l-5.25 3.08c-2.887 1.695-6.712 3.812-8.5 4.706l-3.25 1.625v9.315c0 5.123.048 9.604.203 9.346.207-.344 4.47-2.095 8.844-4.619zm33.953-4.713V83.39l-7.38-4.2c-4.059-2.309-7.659-4.198-8-4.198-.34 0-.618 4.162-.617 9.25l.003 9.25 7.747 4.226c4.261 2.324 7.86 4.237 7.997 4.25.138.013.25-4.162.25-9.277zm19.047 4.713l7.953-4.587V73.952l-5.25 3.08c-2.887 1.695-6.712 3.812-8.5 4.706l-3.25 1.625v9.315c0 5.123.246 9.315.547 9.315.3 0 4.126-2.064 8.5-4.588zm-59.047-26.703c4.125-2.349 7.362-4.707 7.194-5.24-.169-.533-3.63-2.77-7.691-4.97l-7.385-4-6.309 3.416c-11.19 6.057-11.035 5.303-2.154 10.478 4.315 2.514 8.07 4.574 8.345 4.579.275.004 3.875-1.914 8-4.263zm52.603.234c4.042-2.231 7.59-4.447 7.885-4.923.599-.969-13.45-9.046-15.61-8.975-.758.025-4.698 2-8.757 4.39l-7.38 4.347 7.88 4.59c4.334 2.526 8.049 4.6 8.256 4.61.207.01 3.684-1.808 7.726-4.039zm-38.603-23.258v-9.315l-3.25-1.625c-1.787-.894-5.612-3.011-8.5-4.706l-5.25-3.08v18.861l7.75 4.542c4.263 2.498 8.088 4.563 8.5 4.59.413.026.75-4.144.75-9.267zm18.75 4.414l7.25-4.187V29.14l-8 4.533-8 4.532v9.453c0 5.198.338 9.265.75 9.036.413-.228 4.013-2.3 8-4.603zm-5.41-26.957c8.822-4.93 9.002-4.135-2.34-10.357l-6.5-3.566-8.222 4.72-8.222 4.72 8.222 4.655c4.522 2.56 8.457 4.55 8.744 4.42.287-.128 4.03-2.195 8.319-4.592z" fill="#d40000"/><path d="M30.43 145.112l-8.532 1.513c-.287-1.674-.94-2.936-1.955-3.783-1.017-.847-2.336-1.271-3.958-1.271-2.156 0-3.876.731-5.159 2.194s-1.925 3.91-1.925 7.34c0 3.813.652 6.507 1.956 8.08 1.304 1.575 3.054 2.361 5.251 2.361 1.643 0 2.988-.459 4.035-1.377 1.047-.918 1.786-2.497 2.217-4.736l8.501 1.422c-.883 3.834-2.577 6.73-5.082 8.687-2.505 1.957-5.862 2.935-10.071 2.935-4.785 0-8.598-1.483-11.442-4.449C1.422 161.062 0 156.956 0 151.71c0-5.307 1.427-9.438 4.281-12.394 2.854-2.956 6.714-4.434 11.58-4.434 3.984 0 7.151.842 9.502 2.527 2.351 1.685 4.04 4.253 5.067 7.703zm13.059.303l-7.854-1.393c.883-3.107 2.402-5.407 4.558-6.9 2.156-1.493 5.36-2.24 9.61-2.24 3.86 0 6.734.449 8.623 1.347 1.89.898 3.219 2.038 3.989 3.42.77 1.382 1.155 3.92 1.155 7.612l-.093 9.927c0 2.825.139 4.908.416 6.25.277 1.342.796 2.78 1.556 4.313h-8.563c-.225-.565-.503-1.402-.831-2.512a15.122 15.122 0 00-.308-.999c-1.479 1.413-3.06 2.472-4.743 3.178-1.684.706-3.48 1.06-5.39 1.06-3.368 0-6.021-.899-7.962-2.694-1.94-1.796-2.91-4.066-2.91-6.81 0-1.816.441-3.435 1.324-4.858.883-1.422 2.12-2.512 3.711-3.269 1.592-.756 3.886-1.417 6.884-1.982 4.045-.747 6.848-1.443 8.408-2.088v-.848c0-1.634-.41-2.8-1.232-3.496-.821-.696-2.371-1.044-4.65-1.044-1.54 0-2.742.298-3.604.893-.862.595-1.56 1.64-2.094 3.133zm11.58 6.9c-1.109.363-2.864.797-5.266 1.302-2.403.504-3.974.998-4.713 1.483-1.13.787-1.694 1.785-1.694 2.996 0 1.19.452 2.22 1.355 3.087.904.868 2.054 1.302 3.45 1.302 1.56 0 3.05-.505 4.466-1.514 1.047-.766 1.735-1.705 2.063-2.814.226-.727.34-2.109.34-4.147zm25.348 15.436h-8.654v-32.143H79.8v4.57c1.376-2.158 2.613-3.58 3.711-4.267 1.099-.686 2.346-1.029 3.743-1.03 1.97.001 3.87.536 5.697 1.605l-2.68 7.415c-1.457-.928-2.812-1.392-4.065-1.392-1.211 0-2.238.328-3.08.984-.841.655-1.504 1.84-1.986 3.556-.483 1.715-.724 5.307-.724 10.775zm15.43 2.119l9.887 1.18c.164 1.13.544 1.907 1.14 2.33.821.606 2.115.908 3.88.908 2.26 0 3.953-.332 5.082-.998.76-.444 1.335-1.16 1.725-2.15.267-.705.4-2.007.4-3.904v-4.69c-2.587 3.47-5.851 5.205-9.794 5.205-4.394 0-7.874-1.826-10.44-5.478-2.013-2.886-3.019-6.477-3.019-10.775 0-5.387 1.32-9.503 3.958-12.349 2.638-2.845 5.918-4.267 9.84-4.267 4.045 0 7.382 1.745 10.01 5.236v-4.51h8.1v28.844c0 3.793-.318 6.628-.955 8.505-.636 1.876-1.53 3.35-2.68 4.419-1.149 1.069-2.684 1.906-4.604 2.512-1.92.605-4.348.908-7.284.908-5.544 0-9.476-.934-11.796-2.8-2.32-1.866-3.48-4.232-3.48-7.097 0-.283.01-.626.03-1.03zm7.731-18.856c0 3.41.673 5.907 2.018 7.49 1.344 1.585 3.003 2.377 4.974 2.377 2.115 0 3.9-.813 5.359-2.437 1.458-1.624 2.187-4.03 2.187-7.218 0-3.33-.699-5.801-2.095-7.416-1.396-1.614-3.162-2.42-5.297-2.42-2.074 0-3.784.791-5.128 2.375-1.345 1.584-2.018 4-2.018 7.249zm29.63.212c0-2.825.708-5.56 2.124-8.202 1.417-2.644 3.424-4.661 6.022-6.054 2.597-1.392 5.497-2.088 8.7-2.088 4.949 0 9.004 1.579 12.166 4.737 3.162 3.157 4.743 7.147 4.743 11.97 0 4.863-1.596 8.893-4.789 12.091-3.193 3.198-7.212 4.797-12.058 4.797-2.998 0-5.857-.665-8.578-1.997-2.72-1.332-4.789-3.284-6.206-5.857-1.416-2.572-2.125-5.705-2.125-9.397zm8.87.454c0 3.188.77 5.63 2.31 7.324 1.54 1.695 3.439 2.542 5.697 2.542 2.259 0 4.153-.847 5.683-2.542 1.53-1.695 2.294-4.156 2.294-7.385 0-3.148-.765-5.569-2.294-7.264-1.53-1.695-3.424-2.542-5.683-2.542-2.258 0-4.158.847-5.698 2.542-1.54 1.695-2.31 4.137-2.31 7.325zm31.692 16.071v-44.37h8.655v44.37zm39.023 0v-4.812c-1.191 1.715-2.757 3.067-4.697 4.055a13.354 13.354 0 01-6.145 1.483c-2.197 0-4.168-.474-5.913-1.422s-3.008-2.28-3.788-3.995c-.78-1.715-1.17-4.086-1.17-7.113v-20.339h8.654v14.77c0 4.52.159 7.29.477 8.308.319 1.02.899 1.826 1.74 2.422.842.595 1.91.892 3.204.892 1.478 0 2.802-.398 3.973-1.195 1.17-.797 1.97-1.786 2.402-2.966.431-1.18.647-4.071.647-8.671v-13.56h8.654v32.143zm12.874 0l11.796-16.556-11.303-15.587h10.564l5.79 8.838 6.098-8.838h10.164l-11.088 15.224 12.105 16.919h-10.626l-6.653-9.958-6.714 9.958z" font-weight="400" font-size="40" font-family="Bitstream Vera Sans"/></svg>
